<svg width="1200" height="1200" viewBox="0 0 1200 1200" fill="none" xmlns="http://www.w3.org/2000/svg">
    <path fill-rule="evenodd" clip-rule="evenodd" d="M735 366.173C797.178 402.072 876.685 380.768 912.583 318.59C948.482 256.412 927.178 176.905 865 141.007C802.822 105.108 723.315 126.412 687.417 188.59C651.518 250.768 672.822 330.275 735 366.173Z" fill="white"/>
    <path fill-rule="evenodd" clip-rule="evenodd" d="M535 712.583C597.178 748.482 676.685 727.178 712.583 665C748.482 602.822 727.178 523.315 665 487.417C602.822 451.518 523.315 472.822 487.417 535C451.518 597.178 472.822 676.685 535 712.583Z" fill="white"/>
    <path fill-rule="evenodd" clip-rule="evenodd" d="M335 1058.99C397.178 1094.89 476.685 1073.59 512.583 1011.41C548.482 949.232 527.178 869.725 465 833.827C402.822 797.928 323.315 819.232 287.417 881.41C251.518 943.588 272.822 1023.09 335 1058.99Z" fill="white"/>
    <path fill-rule="evenodd" clip-rule="evenodd" d="M931.181 710.378C993.359 746.277 1072.87 724.973 1108.76 662.795C1144.66 600.617 1123.36 521.11 1061.18 485.212C999.003 449.313 919.496 470.617 883.598 532.795C847.699 594.973 869.003 674.48 931.181 710.378Z" fill="white"/>
    <path fill-rule="evenodd" clip-rule="evenodd" d="M731.181 1056.79C793.359 1092.69 872.866 1071.38 908.764 1009.21C944.663 947.027 923.359 867.52 861.181 831.622C799.003 795.723 719.496 817.027 683.598 879.205C647.699 941.383 669.003 1020.89 731.181 1056.79Z" fill="white"/>
    <path fill-rule="evenodd" clip-rule="evenodd" d="M338.819 368.378C400.997 404.277 480.504 382.973 516.402 320.795C552.301 258.617 530.997 179.11 468.819 143.212C406.641 107.313 327.134 128.617 291.236 190.795C255.337 252.973 276.641 332.48 338.819 368.378Z" fill="white"/>
    <path fill-rule="evenodd" clip-rule="evenodd" d="M138.819 714.788C200.997 750.687 280.504 729.383 316.402 667.205C352.301 605.027 330.997 525.52 268.819 489.622C206.641 453.723 127.134 475.027 91.2358 537.205C55.3373 599.383 76.6411 678.89 138.819 714.788Z" fill="white"/>
</svg>
